<?xml version="1.0" encoding="utf-8"?><!-- Uploaded to: SVG Repo, www.svgrepo.com, Generator: SVG Repo Mixer Tools -->
<svg width="800px" height="800px" viewBox="0 0 24 24" fill="none" xmlns="http://www.w3.org/2000/svg">
<path fill-rule="evenodd" clip-rule="evenodd" d="M6.88364 7.6608C7.69702 5.78833 9.70206 4.5 12 4.5C14.3364 4.5 16.3534 5.7223 17.1242 7.65783C17.397 7.5558 17.6922 7.5 18 7.5C19.3807 7.5 20.5 8.61929 20.5 10C20.5 11.3807 19.3807 12.5 18 12.5V14.563C18.8626 14.785 19.5 15.5681 19.5 16.5C19.5 17.6046 18.6046 18.5 17.5 18.5C16.3954 18.5 15.5 17.6046 15.5 16.5C15.5 15.5681 16.1374 14.785 17 14.563V12.5H12.5V16.563C13.3626 16.785 14 17.5681 14 18.5C14 19.6046 13.1046 20.5 12 20.5C10.8954 20.5 10 19.6046 10 18.5C10 17.5681 10.6374 16.785 11.5 16.563V12.5H7L7 14.563C7.86261 14.785 8.5 15.5681 8.5 16.5C8.5 17.6046 7.60457 18.5 6.5 18.5C5.39543 18.5 4.5 17.6046 4.5 16.5C4.5 15.5681 5.13739 14.785 6 14.563V12.5C4.61929 12.5 3.5 11.3807 3.5 10C3.5 8.61929 4.61929 7.5 6 7.5C6.31067 7.5 6.60864 7.55687 6.88364 7.6608ZM7.64196 8.49959C8.1338 6.80363 9.87282 5.5 12 5.5C14.1971 5.5 15.9036 6.74289 16.3422 8.48256C16.3797 8.63139 16.4804 8.74765 16.6083 8.80997C16.7701 8.89578 16.9732 8.88926 17.1326 8.776C17.3774 8.60213 17.676 8.5 18 8.5C18.8284 8.5 19.5 9.17157 19.5 10C19.5 10.8284 18.8284 11.5 18 11.5H6C5.17157 11.5 4.5 10.8284 4.5 10C4.5 9.17157 5.17157 8.5 6 8.5C6.3038 8.5 6.5851 8.58979 6.82067 8.74414C6.8842 8.78577 6.94863 8.81912 7.02249 8.84054C7.2877 8.91745 7.56505 8.7648 7.64196 8.49959ZM5.5 16.5C5.5 15.9477 5.94772 15.5 6.5 15.5C7.05228 15.5 7.5 15.9477 7.5 16.5C7.5 17.0523 7.05228 17.5 6.5 17.5C5.94772 17.5 5.5 17.0523 5.5 16.5ZM16.5 16.5C16.5 15.9477 16.9477 15.5 17.5 15.5C18.0523 15.5 18.5 15.9477 18.5 16.5C18.5 17.0523 18.0523 17.5 17.5 17.5C16.9477 17.5 16.5 17.0523 16.5 16.5ZM12 17.5C11.4477 17.5 11 17.9477 11 18.5C11 19.0523 11.4477 19.5 12 19.5C12.5523 19.5 13 19.0523 13 18.5C13 17.9477 12.5523 17.5 12 17.5Z" fill="#47495F"/>
</svg>